<?xml version="1.0" encoding="UTF-8" standalone="no"?>
<svg
   id="Layer_1"
   viewBox="0 0 199.96 300"
   width="1666.6666"
   height="2500"
   version="1.1"
   sodipodi:docname="3c64eb9d12a700256135194577d8b7b1.svg"
   xmlns:inkscape="http://www.inkscape.org/namespaces/inkscape"
   xmlns:sodipodi="http://sodipodi.sourceforge.net/DTD/sodipodi-0.dtd"
   xmlns="http://www.w3.org/2000/svg"
   xmlns:svg="http://www.w3.org/2000/svg">
  <defs
     id="defs16" />
  <sodipodi:namedview
     id="namedview14"
     pagecolor="#ffffff"
     bordercolor="#666666"
     borderopacity="1.0"
     inkscape:pageshadow="2"
     inkscape:pageopacity="0.0"
     inkscape:pagecheckerboard="0" />
  <style
     type="text/css"
     id="style2">.st0{fill:#0acf83}.st1{fill:#a259ff}.st2{fill:#f24e1e}.st3{fill:#ff7262}.st4{fill:#1abcfe}</style>
  <title
     id="title4">Figma.logo</title>
  <desc
     id="desc6">Created using Figma</desc>
  <path
     id="path0_fill"
     class="st0"
     d="m 49.98,300 c 27.6,0 50,-22.4 50,-50 v -50 h -50 c -27.6,0 -50,22.4 -50,50 0,27.6 22.4,50 50,50 z" />
  <path
     id="path1_fill"
     class="st1"
     d="m -0.02,150 c 0,-27.6 22.4,-50 50,-50 h 50 v 100 h -50 c -27.6,0 -50,-22.4 -50,-50 z" />
  <path
     id="path1_fill_1_"
     class="st2"
     d="m -0.02,50 c 0,-27.6 22.4,-50 50,-50 h 50 v 100 h -50 c -27.6,0 -50,-22.4 -50,-50 z" />
  <path
     id="path2_fill"
     class="st3"
     d="m 99.98,0 h 50 c 27.6,0 50,22.4 50,50 0,27.6 -22.4,50 -50,50 h -50 z" />
  <path
     id="path3_fill"
     class="st4"
     d="m 199.98,150 c 0,27.6 -22.4,50 -50,50 -27.6,0 -50,-22.4 -50,-50 0,-27.6 22.4,-50 50,-50 27.6,0 50,22.4 50,50 z" />
</svg>
